<?xml version="1.0" encoding="UTF-8"?><svg xmlns="http://www.w3.org/2000/svg" width="1200" height="800" viewBox="0 0 1200 800"><defs><linearGradient id="sky" x2="0" y2="1"><stop stop-color="#314565"/><stop offset="1" stop-color="#8eeab2"/></linearGradient><linearGradient id="water" x2="0" y2="1"><stop stop-color="#8eeab2"/><stop offset="1" stop-color="#314565"/></linearGradient><filter id="glow"><feGaussianBlur stdDeviation="12" result="b"/><feMerge><feMergeNode in="b"/><feMergeNode in="SourceGraphic"/></feMerge></filter></defs><rect width="1200" height="800" fill="url(#sky)"/><rect x="0" y="0" width="1200" height="800" fill="#23364c"/><rect x="-30" y="570" width="70" height="130" rx="8" fill="#17283a"/><g fill="#ffe77a" opacity=".8"><rect x="-16" y="590" width="8" height="16"/><rect x="2" y="590" width="8" height="16"/><rect x="20" y="590" width="8" height="16"/></g><rect x="68" y="497" width="88" height="203" rx="8" fill="#17283a"/><g fill="#ffe77a" opacity=".8"><rect x="82" y="517" width="8" height="16"/><rect x="100" y="517" width="8" height="16"/><rect x="118" y="517" width="8" height="16"/></g><rect x="166" y="424" width="106" height="276" rx="8" fill="#17283a"/><g fill="#ffe77a" opacity=".8"><rect x="180" y="444" width="8" height="16"/><rect x="198" y="444" width="8" height="16"/><rect x="216" y="444" width="8" height="16"/></g><rect x="264" y="351" width="70" height="349" rx="8" fill="#17283a"/><g fill="#ffe77a" opacity=".8"><rect x="278" y="371" width="8" height="16"/><rect x="296" y="371" width="8" height="16"/><rect x="314" y="371" width="8" height="16"/></g><rect x="362" y="508" width="88" height="192" rx="8" fill="#17283a"/><g fill="#ffe77a" opacity=".8"><rect x="376" y="528" width="8" height="16"/><rect x="394" y="528" width="8" height="16"/><rect x="412" y="528" width="8" height="16"/></g><rect x="460" y="435" width="106" height="265" rx="8" fill="#17283a"/><g fill="#ffe77a" opacity=".8"><rect x="474" y="455" width="8" height="16"/><rect x="492" y="455" width="8" height="16"/><rect x="510" y="455" width="8" height="16"/></g><rect x="558" y="362" width="70" height="338" rx="8" fill="#17283a"/><g fill="#ffe77a" opacity=".8"><rect x="572" y="382" width="8" height="16"/><rect x="590" y="382" width="8" height="16"/><rect x="608" y="382" width="8" height="16"/></g><rect x="656" y="519" width="88" height="181" rx="8" fill="#17283a"/><g fill="#ffe77a" opacity=".8"><rect x="670" y="539" width="8" height="16"/><rect x="688" y="539" width="8" height="16"/><rect x="706" y="539" width="8" height="16"/></g><rect x="754" y="446" width="106" height="254" rx="8" fill="#17283a"/><g fill="#ffe77a" opacity=".8"><rect x="768" y="466" width="8" height="16"/><rect x="786" y="466" width="8" height="16"/><rect x="804" y="466" width="8" height="16"/></g><rect x="852" y="373" width="70" height="327" rx="8" fill="#17283a"/><g fill="#ffe77a" opacity=".8"><rect x="866" y="393" width="8" height="16"/><rect x="884" y="393" width="8" height="16"/><rect x="902" y="393" width="8" height="16"/></g><rect x="950" y="530" width="88" height="170" rx="8" fill="#17283a"/><g fill="#ffe77a" opacity=".8"><rect x="964" y="550" width="8" height="16"/><rect x="982" y="550" width="8" height="16"/><rect x="1000" y="550" width="8" height="16"/></g><rect x="1048" y="457" width="106" height="243" rx="8" fill="#17283a"/><g fill="#ffe77a" opacity=".8"><rect x="1062" y="477" width="8" height="16"/><rect x="1080" y="477" width="8" height="16"/><rect x="1098" y="477" width="8" height="16"/></g><rect x="1146" y="384" width="70" height="316" rx="8" fill="#17283a"/><g fill="#ffe77a" opacity=".8"><rect x="1160" y="404" width="8" height="16"/><rect x="1178" y="404" width="8" height="16"/><rect x="1196" y="404" width="8" height="16"/></g><g stroke="#8eeab2" stroke-width="18" fill="#536d82"><rect x="390" y="230" width="420" height="410" rx="70"/><rect x="455" y="105" width="290" height="220" rx="55"/><circle cx="530" cy="200" r="30" fill="#6affef"/><circle cx="670" cy="200" r="30" fill="#ffd263"/><path d="M520 500h160M600 105V45M300 390h90M810 390h90"/></g><circle cx="600" cy="45" r="22" fill="#ff6f8f"/><g opacity=".92"><rect x="38" y="38" width="300" height="74" rx="22" fill="#04101eaa" stroke="#ffffff44"/><text x="65" y="72" fill="#fff" font-size="20" font-family="Arial" font-weight="bold">PUZZLE ODYSSEY 19</text><text x="65" y="98" fill="#d8ebf7" font-size="17" font-family="Arial">ROBOT WORKSHOP</text></g><path d="M20 20h1160v760H20z" fill="none" stroke="#ffffff44" stroke-width="4" rx="28"/></svg>