<?xml version="1.0" encoding="UTF-8"?><svg xmlns="http://www.w3.org/2000/svg" width="1200" height="800" viewBox="0 0 1200 800"><defs><linearGradient id="sky" x2="0" y2="1"><stop stop-color="#3b276e"/><stop offset="1" stop-color="#b9e7ff"/></linearGradient><linearGradient id="water" x2="0" y2="1"><stop stop-color="#b9e7ff"/><stop offset="1" stop-color="#3b276e"/></linearGradient><filter id="glow"><feGaussianBlur stdDeviation="12" result="b"/><feMerge><feMergeNode in="b"/><feMergeNode in="SourceGraphic"/></feMerge></filter></defs><rect width="1200" height="800" fill="url(#sky)"/><circle cx="576" cy="26" r="3" fill="#fff" opacity="0.25"/><circle cx="713" cy="109" r="1.5" fill="#fff" opacity="0.37"/><circle cx="850" cy="192" r="1.5" fill="#fff" opacity="0.49"/><circle cx="987" cy="275" r="1.5" fill="#fff" opacity="0.61"/><circle cx="1124" cy="358" r="3" fill="#fff" opacity="0.73"/><circle cx="81" cy="441" r="1.5" fill="#fff" opacity="0.25"/><circle cx="218" cy="54" r="1.5" fill="#fff" opacity="0.37"/><circle cx="355" cy="137" r="1.5" fill="#fff" opacity="0.49"/><circle cx="492" cy="220" r="3" fill="#fff" opacity="0.61"/><circle cx="629" cy="303" r="1.5" fill="#fff" opacity="0.73"/><circle cx="766" cy="386" r="1.5" fill="#fff" opacity="0.25"/><circle cx="903" cy="469" r="1.5" fill="#fff" opacity="0.37"/><circle cx="1040" cy="82" r="3" fill="#fff" opacity="0.49"/><circle cx="1177" cy="165" r="1.5" fill="#fff" opacity="0.61"/><circle cx="134" cy="248" r="1.5" fill="#fff" opacity="0.73"/><circle cx="271" cy="331" r="1.5" fill="#fff" opacity="0.25"/><circle cx="408" cy="414" r="3" fill="#fff" opacity="0.37"/><circle cx="545" cy="27" r="1.5" fill="#fff" opacity="0.49"/><circle cx="682" cy="110" r="1.5" fill="#fff" opacity="0.61"/><circle cx="819" cy="193" r="1.5" fill="#fff" opacity="0.73"/><circle cx="956" cy="276" r="3" fill="#fff" opacity="0.25"/><circle cx="1093" cy="359" r="1.5" fill="#fff" opacity="0.37"/><circle cx="50" cy="442" r="1.5" fill="#fff" opacity="0.49"/><circle cx="187" cy="55" r="1.5" fill="#fff" opacity="0.61"/><circle cx="324" cy="138" r="3" fill="#fff" opacity="0.73"/><circle cx="461" cy="221" r="1.5" fill="#fff" opacity="0.25"/><circle cx="598" cy="304" r="1.5" fill="#fff" opacity="0.37"/><circle cx="735" cy="387" r="1.5" fill="#fff" opacity="0.49"/><circle cx="872" cy="470" r="3" fill="#fff" opacity="0.61"/><circle cx="1009" cy="83" r="1.5" fill="#fff" opacity="0.73"/><circle cx="1146" cy="166" r="1.5" fill="#fff" opacity="0.25"/><circle cx="103" cy="249" r="1.5" fill="#fff" opacity="0.37"/><circle cx="240" cy="332" r="3" fill="#fff" opacity="0.49"/><circle cx="377" cy="415" r="1.5" fill="#fff" opacity="0.61"/><circle cx="600" cy="240" r="165" fill="#dff5ff"/><circle cx="670" cy="190" r="165" fill="#3b276e"/><path d="M0 680Q280 520 580 690T1200 620V800H0Z" fill="#202b58"/><g fill="#c3ffcf"><path d="M80 720q-45-60-80 0 40 20 80 0q45-60 80 0-40 20-80 0z"/><path d="M237 675q-45-60-80 0 40 20 80 0q45-60 80 0-40 20-80 0z"/><path d="M394 630q-45-60-80 0 40 20 80 0q45-60 80 0-40 20-80 0z"/><path d="M551 585q-45-60-80 0 40 20 80 0q45-60 80 0-40 20-80 0z"/><path d="M708 540q-45-60-80 0 40 20 80 0q45-60 80 0-40 20-80 0z"/><path d="M865 720q-45-60-80 0 40 20 80 0q45-60 80 0-40 20-80 0z"/><path d="M1022 675q-45-60-80 0 40 20 80 0q45-60 80 0-40 20-80 0z"/><path d="M1179 630q-45-60-80 0 40 20 80 0q45-60 80 0-40 20-80 0z"/><path d="M236 585q-45-60-80 0 40 20 80 0q45-60 80 0-40 20-80 0z"/><path d="M393 540q-45-60-80 0 40 20 80 0q45-60 80 0-40 20-80 0z"/><path d="M550 720q-45-60-80 0 40 20 80 0q45-60 80 0-40 20-80 0z"/><path d="M707 675q-45-60-80 0 40 20 80 0q45-60 80 0-40 20-80 0z"/><path d="M864 630q-45-60-80 0 40 20 80 0q45-60 80 0-40 20-80 0z"/><path d="M1021 585q-45-60-80 0 40 20 80 0q45-60 80 0-40 20-80 0z"/><path d="M1178 540q-45-60-80 0 40 20 80 0q45-60 80 0-40 20-80 0z"/><path d="M235 720q-45-60-80 0 40 20 80 0q45-60 80 0-40 20-80 0z"/><path d="M392 675q-45-60-80 0 40 20 80 0q45-60 80 0-40 20-80 0z"/><path d="M549 630q-45-60-80 0 40 20 80 0q45-60 80 0-40 20-80 0z"/><path d="M706 585q-45-60-80 0 40 20 80 0q45-60 80 0-40 20-80 0z"/><path d="M863 540q-45-60-80 0 40 20 80 0q45-60 80 0-40 20-80 0z"/><path d="M1020 720q-45-60-80 0 40 20 80 0q45-60 80 0-40 20-80 0z"/><path d="M1177 675q-45-60-80 0 40 20 80 0q45-60 80 0-40 20-80 0z"/></g><g opacity=".92"><rect x="38" y="38" width="300" height="74" rx="22" fill="#04101eaa" stroke="#ffffff44"/><text x="65" y="72" fill="#fff" font-size="20" font-family="Arial" font-weight="bold">PUZZLE ODYSSEY 18</text><text x="65" y="98" fill="#d8ebf7" font-size="17" font-family="Arial">MOON GARDEN</text></g><path d="M20 20h1160v760H20z" fill="none" stroke="#ffffff44" stroke-width="4" rx="28"/></svg>